<?xml version="1.0" encoding="UTF-8"?>
<!DOCTYPE svg PUBLIC "-//W3C//DTD SVG 1.1//EN" "http://www.w3.org/Graphics/SVG/1.1/DTD/svg11.dtd">
<!-- Creator: CorelDRAW 2020 (64 Bit) -->
<svg xmlns="http://www.w3.org/2000/svg" xml:space="preserve" width="200mm" height="200mm" version="1.1" style="shape-rendering:geometricPrecision; text-rendering:geometricPrecision; image-rendering:optimizeQuality; fill-rule:evenodd; clip-rule:evenodd"
viewBox="0 0 20000 20000"
 xmlns:xlink="http://www.w3.org/1999/xlink"
 xmlns:xodm="http://www.corel.com/coreldraw/odm/2003">
 <defs>
  <style type="text/css">
   <![CDATA[
    .str0 {stroke:#3C78D8;stroke-width:105.83;stroke-miterlimit:22.9256}
    .fil1 {fill:none}
    .fil0 {fill:#3C78D8;fill-rule:nonzero}
   ]]>
  </style>
 </defs>
 <g id="Camada_x0020_1">
  <metadata id="CorelCorpID_0Corel-Layer"/>
  <path class="fil0" d="M5394.59 8082.44l0 1784.79c0,276.31 -77.79,489.14 -233.36,638.49 -155.58,149.36 -365.3,224.04 -629.16,224.04 -276.31,0 -497.85,-78.41 -664.63,-235.24 -166.78,-156.82 -250.17,-379.61 -250.17,-668.36l634.76 0c0,109.53 22.4,192.29 67.21,248.3 44.8,56.01 109.53,84.01 194.16,84.01 77.17,0 136.91,-24.89 179.23,-74.67 42.31,-49.79 63.47,-121.98 63.47,-216.57l0 -1784.79 638.49 0zm813.99 2651.05c-112.02,0 -203.5,-32.98 -274.44,-98.95 -70.94,-65.96 -106.42,-147.48 -106.42,-244.57 0,-99.56 35.48,-182.95 106.42,-250.16 70.94,-67.21 162.42,-100.82 274.44,-100.82 109.53,0 199.76,33.61 270.71,100.82 70.94,67.21 106.41,150.6 106.41,250.16 0,97.09 -35.47,178.61 -106.41,244.57 -70.95,65.97 -161.18,98.95 -270.71,98.95zm2639.84 -2651.05l0 511.54 -694.5 0 0 2109.64 -638.49 0 0 -2109.64 -694.5 0 0 -511.54 2027.49 0zm2285.14 1545.83c0,59.74 -3.74,121.97 -11.21,186.69l-1445 0c9.95,129.44 51.65,228.39 125.08,296.84 73.43,68.46 163.67,102.68 270.71,102.68 159.31,0 270.08,-67.21 332.31,-201.63l679.57 0c-34.85,136.91 -97.71,260.13 -188.57,369.66 -90.85,109.52 -204.74,195.4 -341.64,257.63 -136.91,62.24 -290,93.35 -459.27,93.35 -204.12,0 -385.83,-43.56 -545.15,-130.68 -159.31,-87.13 -283.77,-211.59 -373.38,-373.39 -89.62,-161.8 -134.42,-350.99 -134.42,-567.55 0,-216.56 44.18,-405.75 132.55,-567.55 88.37,-161.8 212.21,-286.26 371.52,-373.39 159.31,-87.12 342.27,-130.68 548.88,-130.68 201.63,0 380.85,42.32 537.68,126.95 156.82,84.64 279.42,205.36 367.78,362.19 88.37,156.82 132.56,339.78 132.56,548.88zm-653.43 -168.03c0,-109.53 -37.34,-196.65 -112.02,-261.37 -74.68,-64.72 -168.02,-97.08 -280.04,-97.08 -107.04,0 -197.27,31.12 -270.7,93.35 -73.44,62.23 -118.87,150.6 -136.29,265.1l799.05 0zm862.52 201.63c0,-216.56 44.18,-405.75 132.55,-567.55 88.37,-161.8 211.59,-286.26 369.65,-373.39 158.07,-87.12 339.16,-130.68 543.28,-130.68 261.37,0 479.8,68.45 655.3,205.36 175.49,136.91 290.62,329.83 345.38,578.75l-679.57 0c-57.25,-159.31 -168.02,-238.97 -332.31,-238.97 -116.99,0 -210.34,45.43 -280.04,136.29 -69.7,90.86 -104.55,220.92 -104.55,390.19 0,169.27 34.85,299.33 104.55,390.19 69.7,90.86 163.05,136.29 280.04,136.29 164.29,0 275.06,-79.66 332.31,-238.97l679.57 0c-54.76,243.94 -170.51,435.62 -347.25,575.01 -176.74,139.4 -394.55,209.1 -653.43,209.1 -204.12,0 -385.21,-43.56 -543.28,-130.68 -158.06,-87.13 -281.28,-211.59 -369.65,-373.39 -88.37,-161.8 -132.55,-350.99 -132.55,-567.55zm3666.66 -1064.15c238.97,0 430.64,79.03 575.01,237.1 144.38,158.07 216.57,375.25 216.57,651.56l0 1217.24 -634.76 0 0 -1131.36c0,-139.4 -36.09,-247.68 -108.28,-324.85 -72.19,-77.17 -169.27,-115.75 -291.24,-115.75 -121.98,0 -219.06,38.58 -291.25,115.75 -72.18,77.17 -108.28,185.45 -108.28,324.85l0 1131.36 -638.49 0 0 -2763.06 638.49 0 0 959.6c64.72,-92.1 153.09,-165.53 265.11,-220.3 112.01,-54.76 237.72,-82.14 377.12,-82.14z"/>
  <path class="fil1 str0" d="M17882.22 10856.33c-735.77,559.73 -4029.34,963.54 -7858.85,963.54 -4422.72,0 -8008.05,-533.99 -8008.05,-1192.69 0,-222.98 419.71,-441.5 1211.5,-630.75"/>
  <polygon class="fil1 str0" points="18294.61,10515.83 18202.79,10773.92 18110.97,11032.02 17933.37,10823.46 17755.76,10614.89 18025.18,10565.36 "/>
 </g>
</svg>
